<?xml version="1.0" encoding="UTF-8"?>
<!DOCTYPE svg PUBLIC "-//W3C//DTD SVG 1.1//EN" "http://www.w3.org/Graphics/SVG/1.1/DTD/svg11.dtd">
<svg xmlns="http://www.w3.org/2000/svg" xmlns:xlink="http://www.w3.org/1999/xlink" version="1.1" width="580px" height="494px" viewBox="-0.5 -0.5 580 494"><defs/><g><g data-cell-id="0"><g data-cell-id="1"><g data-cell-id="board"><g><rect x="69" y="0" width="177" height="92" rx="7.36" ry="7.36" fill="#0f1729" stroke="#e08a4e" pointer-events="all"/></g><g><g fill="#e2e8f0" font-family="&quot;Helvetica&quot;" text-anchor="middle" font-size="12px"><text x="157" y="29.5">Board sources</text><text x="157" y="43.5">KiCad · Eagle · Altium</text><text x="157" y="57.5">IPC-2581 · ODB++</text><text x="157" y="71.5">Gerber + IPC-D-356</text></g></g></g><g data-cell-id="assembly"><g><rect x="286" y="17" width="132" height="75" rx="6" ry="6" fill="#0f1729" stroke="#e08a4e" pointer-events="all"/></g><g><g fill="#e2e8f0" font-family="&quot;Helvetica&quot;" text-anchor="middle" font-size="12px"><text x="351.5" y="45">Assembly</text><text x="351.5" y="59">BOM · placement</text><text x="351.5" y="73">fitted variant</text></g></g></g><g data-cell-id="firmware"><g><rect x="458" y="34" width="120" height="58" rx="4.64" ry="4.64" fill="#0f1729" stroke="#e08a4e" pointer-events="all"/></g><g><g fill="#e2e8f0" font-family="&quot;Helvetica&quot;" text-anchor="middle" font-size="12px"><text x="517.5" y="60.5">Firmware</text><text x="517.5" y="74.5">+ model packs</text></g></g></g><g data-cell-id="inventory"><g><rect x="222" y="148" width="260" height="44" rx="3.52" ry="3.52" fill="#111c33" stroke="#3b82f6" pointer-events="all"/></g><g><g fill="#e2e8f0" font-family="&quot;Helvetica&quot;" text-anchor="middle" font-size="12px"><text x="351.5" y="174.5">Input authority + SHA-256 inventory</text></g></g></g><g data-cell-id="ir"><g><rect x="193" y="248" width="318" height="44" rx="3.52" ry="3.52" fill="#111c33" stroke="#3b82f6" pointer-events="all"/></g><g><g fill="#e2e8f0" font-family="&quot;Helvetica&quot;" text-anchor="middle" font-size="12px"><text x="351.5" y="274.5">Extracted board IR + explicit model coverage</text></g></g></g><g data-cell-id="static"><g><rect x="0" y="348" width="120" height="44" rx="3.52" ry="3.52" fill="#111c33" stroke="#22c55e" pointer-events="all"/></g><g><g fill="#e2e8f0" font-family="&quot;Helvetica&quot;" text-anchor="middle" font-size="12px"><text x="59.5" y="374.5">Static checks</text></g></g></g><g data-cell-id="analog"><g><rect x="160" y="348" width="171" height="44" rx="3.52" ry="3.52" fill="#111c33" stroke="#22c55e" pointer-events="all"/></g><g><g fill="#e2e8f0" font-family="&quot;Helvetica&quot;" text-anchor="middle" font-size="12px"><text x="245" y="374.5">Analog / AC / thermal</text></g></g></g><g data-cell-id="cosim"><g><rect x="371" y="348" width="120" height="44" rx="3.52" ry="3.52" fill="#111c33" stroke="#22c55e" pointer-events="all"/></g><g><g fill="#e2e8f0" font-family="&quot;Helvetica&quot;" text-anchor="middle" font-size="12px"><text x="430.5" y="374.5">MCU co-sim</text></g></g></g><g data-cell-id="outputs"><g><rect x="90" y="448" width="312" height="44" rx="3.52" ry="3.52" fill="#111c33" stroke="#22c55e" pointer-events="all"/></g><g><g fill="#e2e8f0" font-family="&quot;Helvetica&quot;" text-anchor="middle" font-size="12px"><text x="245.5" y="474.5">Terminal · JSON · JUnit · SARIF · web · MCP</text></g></g></g><g data-cell-id="e0"><g><path d="M 157.5 92 L 157.5 110 Q 157.5 120 167.5 120 L 251 120 Q 261 120 261 130 L 261 141.63" fill="none" stroke="#e08a4e" stroke-miterlimit="10" pointer-events="stroke"/><path d="M 261 146.88 L 257.5 139.88 L 261 141.63 L 264.5 139.88 Z" fill="#e08a4e" stroke="#e08a4e" stroke-miterlimit="10" pointer-events="all"/></g></g><g data-cell-id="e1"><g><path d="M 352 92 L 352 141.63" fill="none" stroke="#e08a4e" stroke-miterlimit="10" pointer-events="stroke"/><path d="M 352 146.88 L 348.5 139.88 L 352 141.63 L 355.5 139.88 Z" fill="#e08a4e" stroke="#e08a4e" stroke-miterlimit="10" pointer-events="all"/></g></g><g data-cell-id="e2"><g><path d="M 518 92 L 518 110 Q 518 120 508 120 L 453 120 Q 443 120 443 130 L 443 141.63" fill="none" stroke="#e08a4e" stroke-miterlimit="10" pointer-events="stroke"/><path d="M 443 146.88 L 439.5 139.88 L 443 141.63 L 446.5 139.88 Z" fill="#e08a4e" stroke="#e08a4e" stroke-miterlimit="10" pointer-events="all"/></g></g><g data-cell-id="e3"><g><path d="M 352 192 L 352 241.63" fill="none" stroke="#3b82f6" stroke-miterlimit="10" pointer-events="stroke"/><path d="M 352 246.88 L 348.5 239.88 L 352 241.63 L 355.5 239.88 Z" fill="#3b82f6" stroke="#3b82f6" stroke-miterlimit="10" pointer-events="all"/></g></g><g data-cell-id="e4"><g><path d="M 240.7 292 L 240.7 310 Q 240.7 320 230.7 320 L 70 320 Q 60 320 60 330 L 60 341.63" fill="none" stroke="#3b82f6" stroke-miterlimit="10" pointer-events="stroke"/><path d="M 60 346.88 L 56.5 339.88 L 60 341.63 L 63.5 339.88 Z" fill="#3b82f6" stroke="#3b82f6" stroke-miterlimit="10" pointer-events="all"/></g></g><g data-cell-id="e5"><g><path d="M 247.06 292 L 247.09 310 Q 247.1 320 246.3 320 L 245.9 320 Q 245.5 320 245.5 330 L 245.5 341.63" fill="none" stroke="#3b82f6" stroke-miterlimit="10" pointer-events="stroke"/><path d="M 245.5 346.88 L 242 339.88 L 245.5 341.63 L 249 339.88 Z" fill="#3b82f6" stroke="#3b82f6" stroke-miterlimit="10" pointer-events="all"/></g></g><g data-cell-id="e6"><g><path d="M 431.5 292 L 431.5 310 Q 431.5 320 431.32 330 L 431.11 341.63" fill="none" stroke="#3b82f6" stroke-miterlimit="10" pointer-events="stroke"/><path d="M 431.02 346.88 L 427.65 339.82 L 431.11 341.63 L 434.64 339.95 Z" fill="#3b82f6" stroke="#3b82f6" stroke-miterlimit="10" pointer-events="all"/></g></g><g data-cell-id="e7"><g><path d="M 60 392 L 60 410 Q 60 420 70 420 L 126.8 420 Q 136.8 420 136.8 430 L 136.8 441.63" fill="none" stroke="#22c55e" stroke-miterlimit="10" pointer-events="stroke"/><path d="M 136.8 446.88 L 133.3 439.88 L 136.8 441.63 L 140.3 439.88 Z" fill="#22c55e" stroke="#22c55e" stroke-miterlimit="10" pointer-events="all"/></g></g><g data-cell-id="e8"><g><path d="M 245.5 392 L 245.5 410 Q 245.5 420 245.68 430 L 245.89 441.63" fill="none" stroke="#22c55e" stroke-miterlimit="10" pointer-events="stroke"/><path d="M 245.98 446.88 L 242.36 439.95 L 245.89 441.63 L 249.35 439.82 Z" fill="#22c55e" stroke="#22c55e" stroke-miterlimit="10" pointer-events="all"/></g></g><g data-cell-id="e9"><g><path d="M 431 392 L 431 410 Q 431 420 421 420 L 365.2 420 Q 355.2 420 355.2 430 L 355.2 441.63" fill="none" stroke="#22c55e" stroke-miterlimit="10" pointer-events="stroke"/><path d="M 355.2 446.88 L 351.7 439.88 L 355.2 441.63 L 358.7 439.88 Z" fill="#22c55e" stroke="#22c55e" stroke-miterlimit="10" pointer-events="all"/></g></g></g></g></g></svg>