<?xml version="1.0" encoding="UTF-8"?>
<!DOCTYPE svg PUBLIC "-//W3C//DTD SVG 1.1//EN" "http://www.w3.org/Graphics/SVG/1.1/DTD/svg11.dtd">
<svg xmlns="http://www.w3.org/2000/svg" xmlns:xlink="http://www.w3.org/1999/xlink" version="1.1" width="872px" height="399px" viewBox="-0.5 -0.5 872 399"><defs/><g><g data-cell-id="0"><g data-cell-id="1"><g data-cell-id="pcb"><g><rect x="0" y="83" width="200" height="44" rx="3.52" ry="3.52" fill="#0f1729" stroke="#e08a4e" pointer-events="all"/></g><g><g fill="#e2e8f0" font-family="&quot;Helvetica&quot;" text-anchor="middle" font-size="12px"><text x="99.5" y="109.5">.kicad_pcb</text></g></g></g><g data-cell-id="code"><g><rect x="290" y="79" width="280" height="52" rx="4.16" ry="4.16" fill="#0f1729" stroke="#e08a4e" pointer-events="all"/></g><g><g fill="#e2e8f0" font-family="&quot;Helvetica&quot;" text-anchor="middle" font-size="12px"><text x="429.5" y="102.5">board.board</text><text x="429.5" y="116.5">(editable text)</text></g></g></g><g data-cell-id="fromcode"><g><rect x="330" y="243" width="200" height="44" rx="3.52" ry="3.52" fill="#111c33" stroke="#3b82f6" pointer-events="all"/></g><g><g fill="#e2e8f0" font-family="&quot;Helvetica&quot;" text-anchor="middle" font-size="12px"><text x="429.5" y="269.5">from-code</text></g></g></g><g data-cell-id="pcb2"><g><rect x="580" y="239" width="290" height="52" rx="4.16" ry="4.16" fill="#0f1729" stroke="#e08a4e" pointer-events="all"/></g><g><g fill="#e2e8f0" font-family="&quot;Helvetica&quot;" text-anchor="middle" font-size="12px"><text x="724.5" y="262.5">.kicad_pcb'</text><text x="724.5" y="276.5">(recompiled, connectivity-equal)</text></g></g></g><g data-cell-id="checkcode"><g><rect x="0" y="353" width="200" height="44" rx="3.52" ry="3.52" fill="#111c33" stroke="#3b82f6" pointer-events="all"/></g><g><g fill="#e2e8f0" font-family="&quot;Helvetica&quot;" text-anchor="middle" font-size="12px"><text x="99.5" y="379.5">check-code</text></g></g></g><g data-cell-id="pipe"><g><rect x="380" y="353" width="350" height="44" rx="3.52" ry="3.52" fill="#111c33" stroke="#22c55e" pointer-events="all"/></g><g><g fill="#e2e8f0" font-family="&quot;Helvetica&quot;" text-anchor="middle" font-size="12px"><text x="554.5" y="379.5">extract ▸ bind ▸ co-sim ▸ stress monitor ▸ report</text></g></g></g><g data-cell-id="e1"><g><path d="M 200 105 L 283.63 105" fill="none" stroke="#e08a4e" stroke-miterlimit="10" pointer-events="stroke"/><path d="M 288.88 105 L 281.88 108.5 L 283.63 105 L 281.88 101.5 Z" fill="#e08a4e" stroke="#e08a4e" stroke-miterlimit="10" pointer-events="all"/></g><g><g fill="#94a3b8" font-family="&quot;Helvetica&quot;" text-anchor="middle" font-size="10px"><rect fill="#0b1020" stroke="none" x="228" y="86" width="35" height="13" stroke-width="0"/><text x="244.5" y="94.5">to-code</text></g></g></g><g data-cell-id="e2"><g><path d="M 430 131 L 430 236.63" fill="none" stroke="#e08a4e" stroke-miterlimit="10" pointer-events="stroke"/><path d="M 430 241.88 L 426.5 234.88 L 430 236.63 L 433.5 234.88 Z" fill="#e08a4e" stroke="#e08a4e" stroke-miterlimit="10" pointer-events="all"/></g><g><g fill="#94a3b8" font-family="&quot;Helvetica&quot;" text-anchor="middle" font-size="10px"><rect fill="#0b1020" stroke="none" x="468" y="176" width="136" height="25" stroke-width="0"/><text x="534.5" y="184.5">edit: value, wiring,</text><text x="534.5" y="196.5">add/remove parts, layout hints</text></g></g></g><g data-cell-id="e3"><g><path d="M 530 265 L 573.63 265" fill="none" stroke="#e08a4e" stroke-miterlimit="10" pointer-events="stroke"/><path d="M 578.88 265 L 571.88 268.5 L 573.63 265 L 571.88 261.5 Z" fill="#e08a4e" stroke="#e08a4e" stroke-miterlimit="10" pointer-events="all"/></g></g><g data-cell-id="e4"><g><path d="M 318 131 L 318 232 Q 318 242 308 242 L 110 242 Q 100 242 100 252 L 100 346.63" fill="none" stroke="#3b82f6" stroke-miterlimit="10" pointer-events="stroke"/><path d="M 100 351.88 L 96.5 344.88 L 100 346.63 L 103.5 344.88 Z" fill="#3b82f6" stroke="#3b82f6" stroke-miterlimit="10" pointer-events="all"/></g><g><g fill="#94a3b8" font-family="&quot;Helvetica&quot;" text-anchor="middle" font-size="10px"><rect fill="#0b1020" stroke="none" x="183" y="223" width="53" height="13" stroke-width="0"/><text x="208.5" y="231.5">check-code</text></g></g></g><g data-cell-id="e5"><g><path d="M 200 375 L 373.63 375" fill="none" stroke="#22c55e" stroke-miterlimit="10" pointer-events="stroke"/><path d="M 378.88 375 L 371.88 378.5 L 373.63 375 L 371.88 371.5 Z" fill="#22c55e" stroke="#22c55e" stroke-miterlimit="10" pointer-events="all"/></g></g><g data-cell-id="e6"><g><path d="M 725 239 L 725 29 Q 725 19 715 19 L 110 19 Q 100 19 100 29 L 100 76.63" fill="none" stroke="#3b82f6" stroke-miterlimit="10" stroke-dasharray="3 3" pointer-events="stroke"/><path d="M 100 81.88 L 96.5 74.88 L 100 76.63 L 103.5 74.88 Z" fill="#3b82f6" stroke="#3b82f6" stroke-miterlimit="10" pointer-events="all"/></g><g><g fill="#94a3b8" font-family="&quot;Helvetica&quot;" text-anchor="middle" font-size="10px"><rect fill="#0b1020" stroke="none" x="450" y="0" width="82" height="13" stroke-width="0"/><text x="489.5" y="8.5">connectivity-equal</text></g></g></g></g></g></g></svg>