<?xml version="1.0" encoding="UTF-8"?>
<!DOCTYPE svg PUBLIC "-//W3C//DTD SVG 1.1//EN" "http://www.w3.org/Graphics/SVG/1.1/DTD/svg11.dtd">
<svg xmlns="http://www.w3.org/2000/svg" xmlns:xlink="http://www.w3.org/1999/xlink" version="1.1" width="812px" height="486px" viewBox="-0.5 -0.5 812 486"><defs/><g><g data-cell-id="0"><g data-cell-id="1"><g data-cell-id="pcb"><g><rect x="50" y="0" width="240" height="44" rx="3.52" ry="3.52" fill="#111c33" stroke="#3b82f6" pointer-events="all"/></g><g><g fill="#e2e8f0" font-family="&quot;Helvetica&quot;" text-anchor="middle" font-size="12px"><text x="169.5" y="26.5">.kicad_pcb</text></g></g></g><g data-cell-id="drc"><g><rect x="50" y="104" width="240" height="52" rx="3.12" ry="3.12" fill="#111c33" stroke="#3b82f6" pointer-events="all"/></g><g><g fill="#e2e8f0" font-family="&quot;Helvetica&quot;" text-anchor="middle" font-size="12px"><text x="169.5" y="127.5">DrcReport</text><text x="169.5" y="141.5">(shorts + clearance violations)</text></g></g></g><g data-cell-id="sched"><g><rect x="0" y="200" width="340" height="52" rx="4.16" ry="4.16" fill="#0f1729" stroke="#e08a4e" pointer-events="all"/></g><g><g fill="#e2e8f0" font-family="&quot;Helvetica&quot;" text-anchor="middle" font-size="12px"><text x="169.5" y="223.5">Scheduler::apply_drc_shorts</text><text x="169.5" y="237.5">/ short_nets</text></g></g></g><g data-cell-id="solve"><g><rect x="80" y="320" width="180" height="44" rx="3.52" ry="3.52" fill="#0f1729" stroke="#e08a4e" pointer-events="all"/></g><g><g fill="#e2e8f0" font-family="&quot;Helvetica&quot;" text-anchor="middle" font-size="12px"><text x="169.5" y="346.5">transient solve</text></g></g></g><g data-cell-id="mon"><g><rect x="300" y="320" width="180" height="44" rx="3.52" ry="3.52" fill="#0f1729" stroke="#e08a4e" pointer-events="all"/></g><g><g fill="#e2e8f0" font-family="&quot;Helvetica&quot;" text-anchor="middle" font-size="12px"><text x="389.5" y="346.5">StressMonitor</text></g></g></g><g data-cell-id="fault"><g><rect x="510" y="316" width="260" height="52" rx="4.16" ry="4.16" fill="#111c33" stroke="#3b82f6" pointer-events="all"/></g><g><g fill="#e2e8f0" font-family="&quot;Helvetica&quot;" text-anchor="middle" font-size="12px"><text x="639.5" y="339.5">FaultEvent</text><text x="639.5" y="353.5">{kind:"short", ...}</text></g></g></g><g data-cell-id="front"><g><rect x="470" y="440" width="340" height="44" rx="3.52" ry="3.52" fill="#111c33" stroke="#22c55e" pointer-events="all"/></g><g><g fill="#e2e8f0" font-family="&quot;Helvetica&quot;" text-anchor="middle" font-size="12px"><text x="639.5" y="466.5">frontend fault channel (no UI change)</text></g></g></g><g data-cell-id="e1"><g><path d="M 170 44 L 170 97.63" fill="none" stroke="#3b82f6" stroke-miterlimit="10" pointer-events="stroke"/><path d="M 170 102.88 L 166.5 95.88 L 170 97.63 L 173.5 95.88 Z" fill="#3b82f6" stroke="#3b82f6" stroke-miterlimit="10" pointer-events="all"/></g><g><g fill="#94a3b8" font-family="&quot;Helvetica&quot;" text-anchor="middle" font-size="10px"><rect fill="#0b1020" stroke="none" x="213" y="69" width="55" height="13" stroke-width="0"/><text x="239.5" y="77.5">drc::run_drc</text></g></g></g><g data-cell-id="e2"><g><path d="M 170 156 L 170 193.63" fill="none" stroke="#e08a4e" stroke-miterlimit="10" pointer-events="stroke"/><path d="M 170 198.88 L 166.5 191.88 L 170 193.63 L 173.5 191.88 Z" fill="#e08a4e" stroke="#e08a4e" stroke-miterlimit="10" pointer-events="all"/></g></g><g data-cell-id="e3"><g><path d="M 170 252 L 170 313.63" fill="none" stroke="#e08a4e" stroke-miterlimit="10" pointer-events="stroke"/><path d="M 170 318.88 L 166.5 311.88 L 170 313.63 L 173.5 311.88 Z" fill="#e08a4e" stroke="#e08a4e" stroke-miterlimit="10" pointer-events="all"/></g><g><g fill="#94a3b8" font-family="&quot;Helvetica&quot;" text-anchor="middle" font-size="10px"><rect fill="#0b1020" stroke="none" x="226" y="281" width="190" height="13" stroke-width="0"/><text x="319.5" y="289.5">bridge shorted nets with a few-mΩ resistor</text></g></g></g><g data-cell-id="e4"><g><path d="M 260 342 L 293.63 342" fill="none" stroke="#e08a4e" stroke-miterlimit="10" pointer-events="stroke"/><path d="M 298.88 342 L 291.88 345.5 L 293.63 342 L 291.88 338.5 Z" fill="#e08a4e" stroke="#e08a4e" stroke-miterlimit="10" pointer-events="all"/></g></g><g data-cell-id="e5"><g><path d="M 480 342 L 503.63 342" fill="none" stroke="#3b82f6" stroke-miterlimit="10" pointer-events="stroke"/><path d="M 508.88 342 L 501.88 345.5 L 503.63 342 L 501.88 338.5 Z" fill="#3b82f6" stroke="#3b82f6" stroke-miterlimit="10" pointer-events="all"/></g></g><g data-cell-id="e6"><g><path d="M 640 368 L 640 433.63" fill="none" stroke="#22c55e" stroke-miterlimit="10" pointer-events="stroke"/><path d="M 640 438.88 L 636.5 431.88 L 640 433.63 L 643.5 431.88 Z" fill="#22c55e" stroke="#22c55e" stroke-miterlimit="10" pointer-events="all"/></g></g></g></g></g></svg>